<svg width="18" height="18" viewBox="0 0 18 18" fill="none" xmlns="http://www.w3.org/2000/svg">
<path d="M10.9771 -2.94899e-05C11.0618 -0.000180703 11.1457 0.0163572 11.224 0.0486387C11.3022 0.0809203 11.3734 0.128312 11.4333 0.188106L17.8119 6.56666C17.9327 6.68749 18.0005 6.85134 18.0005 7.02218C18.0005 7.19303 17.9327 7.35688 17.8119 7.4777C17.1933 8.09623 16.4305 8.2354 15.8751 8.2354C15.647 8.2354 15.4434 8.2122 15.2823 8.18514L11.2439 12.2236C11.3502 12.6519 11.4192 13.0887 11.4501 13.529C11.5093 14.4335 11.4088 15.7028 10.5223 16.5894C10.4014 16.7102 10.2376 16.778 10.0668 16.778C9.89591 16.778 9.73205 16.7102 9.61123 16.5894L5.96579 12.9452L1.86547 17.0455C1.6142 17.2968 0.294674 18.2078 0.0433977 17.9566C-0.207879 17.7053 0.703159 16.3845 0.954436 16.1345L5.05475 12.0342L1.4106 8.38874C1.28981 8.26791 1.22196 8.10406 1.22196 7.93322C1.22196 7.76237 1.28981 7.59852 1.4106 7.4777C2.29715 6.59115 3.56642 6.48935 4.47102 6.54991C4.91128 6.58076 5.34803 6.64974 5.77637 6.75609L9.81483 2.71891C9.78112 2.52268 9.76388 2.32397 9.76328 2.12487C9.76328 1.57077 9.90246 0.807921 10.5223 0.188106C10.643 0.0676618 10.8066 6.74411e-06 10.9771 -2.94899e-05Z" fill="#686868"/>
</svg>
