<svg width="24" height="24" viewBox="0 0 24 24" fill="none" xmlns="http://www.w3.org/2000/svg">
<rect width="24" height="24" fill="#1E1E1E"/>
<g id="Dashboard Desktop" clip-path="url(#clip0_1_970)">
<rect width="1440" height="900" transform="translate(-873 -614)" fill="#FAFAFA"/>
<g id="Background">
<rect id="Rectangle 2" x="-630" y="-614" width="1197" height="900" fill="white"/>
</g>
<g id="Announcement">
<rect id="Rectangle 22" x="-579.5" y="-81.5" width="639" height="333" rx="11.5" fill="white" stroke="#E0E0E0"/>
<g id="Frame 60">
<rect x="-559.75" y="-21.75" width="599.5" height="67.5" rx="5.75" fill="#FAFAFA"/>
<rect x="-559.75" y="-21.75" width="599.5" height="67.5" rx="5.75" stroke="#E0E0E0" stroke-width="0.5"/>
<g id="Frame 57">
<g id="carbon:overflow-menu-horizontal">
<g id="Group 3">
<path id="Vector" d="M5 14C6.10457 14 7 13.1046 7 12C7 10.8954 6.10457 10 5 10C3.89543 10 3 10.8954 3 12C3 13.1046 3.89543 14 5 14Z" fill="#B2B2B2"/>
<path id="Vector_2" d="M12 14C13.1046 14 14 13.1046 14 12C14 10.8954 13.1046 10 12 10C10.8954 10 10 10.8954 10 12C10 13.1046 10.8954 14 12 14Z" fill="#B2B2B2"/>
<path id="Vector_3" d="M19 14C20.1046 14 21 13.1046 21 12C21 10.8954 20.1046 10 19 10C17.8954 10 17 10.8954 17 12C17 13.1046 17.8954 14 19 14Z" fill="#B2B2B2"/>
</g>
</g>
</g>
</g>
</g>
</g>
<defs>
<clipPath id="clip0_1_970">
<rect width="1440" height="900" fill="white" transform="translate(-873 -614)"/>
</clipPath>
</defs>
</svg>
